<?xml version="1.0" encoding="UTF-8" standalone="no" ?>
<!DOCTYPE svg PUBLIC "-//W3C//DTD SVG 1.1//EN" "http://www.w3.org/Graphics/SVG/1.1/DTD/svg11.dtd">
<svg xmlns="http://www.w3.org/2000/svg" xmlns:xlink="http://www.w3.org/1999/xlink" version="1.1" width="139.9318" height="148.4818" xml:space="preserve">
<desc>Created with Fabric.js 1.6.0-rc.1</desc>
<defs></defs>
<g style="stroke: none; stroke-width: 1; stroke-dasharray: none; stroke-linecap: butt; stroke-linejoin: miter; stroke-miterlimit: 10; fill: none; fill-rule: nonzero; opacity: 1;" transform="translate(10 10) scale(0.38 0.38)" >
  <path d="M 227.812 337.113 c 24.608 0 44.557 -19.949 44.557 -44.557 V 103.812 C 272.369 46.479 225.892 0 168.558 0 S 64.746 46.479 64.746 103.812 v 188.745 c 0 24.607 19.948 44.557 44.557 44.557 h 118.509 V 337.113 z" style="stroke: none; stroke-width: 1; stroke-dasharray: none; stroke-linecap: butt; stroke-linejoin: miter; stroke-miterlimit: 10; fill: #333E48; fill-rule: nonzero; opacity: 1;" transform=" matrix(1 0 0 1 0 0) " stroke-linecap="round" />
  <path d="M 63.261 215.508 c 10.005 10.004 26.22 10.003 36.222 0 c 10.002 -10.002 10.002 -26.217 0 -36.219 l -61.974 -61.974 c -20.003 20.003 -20.003 52.434 -0.001 72.439 L 63.261 215.508 z" style="stroke: none; stroke-width: 1; stroke-dasharray: none; stroke-linecap: butt; stroke-linejoin: miter; stroke-miterlimit: 10; fill: #333E48; fill-rule: nonzero; opacity: 1;" transform=" matrix(1 0 0 1 0 0) " stroke-linecap="round" />
  <path d="M 273.854 215.508 c -10.005 10.004 -26.22 10.003 -36.222 0 c -10.002 -10.002 -10.002 -26.217 0 -36.219 l 61.974 -61.974 c 20.003 20.003 20.003 52.434 0.001 72.439 L 273.854 215.508 z" style="stroke: none; stroke-width: 1; stroke-dasharray: none; stroke-linecap: butt; stroke-linejoin: miter; stroke-miterlimit: 10; fill: #333E48; fill-rule: nonzero; opacity: 1;" transform=" matrix(1 0 0 1 0 0) " stroke-linecap="round" />
  <path d="M 168.558 194.9 c -31.31 0 -56.69 25.382 -56.69 56.691 v 85.521 h 113.381 v -85.521 C 225.248 220.282 199.866 194.9 168.558 194.9 z" style="stroke: none; stroke-width: 1; stroke-dasharray: none; stroke-linecap: butt; stroke-linejoin: miter; stroke-miterlimit: 10; fill: #E8E8E8; fill-rule: nonzero; opacity: 1;" transform=" matrix(1 0 0 1 0 0) " stroke-linecap="round" />
  <path d="M 235.747 115.609 V 85.887 c 0 -20.386 -16.527 -36.912 -36.912 -36.912 c -12.537 0 -23.605 6.255 -30.277 15.807 c -6.672 -9.552 -17.74 -15.807 -30.277 -15.807 c -20.385 0 -36.912 16.526 -36.912 36.912 v 29.723 c -4.595 5.746 -7.349 13.029 -7.349 20.958 c 0 18.554 15.041 33.595 33.595 33.595 h 81.886 c 18.553 0 33.594 -15.041 33.594 -33.595 C 243.095 128.639 240.342 121.355 235.747 115.609 z" style="stroke: none; stroke-width: 1; stroke-dasharray: none; stroke-linecap: butt; stroke-linejoin: miter; stroke-miterlimit: 10; fill: #FFFFFF; fill-rule: nonzero; opacity: 1;" transform=" matrix(1 0 0 1 0 0) " stroke-linecap="round" />
  <path d="M 185.388 122.987 c 0 -9.294 -7.535 -16.83 -16.83 -16.83 s -16.83 7.536 -16.83 16.83 c 0 9.295 16.83 16.83 16.83 16.83 S 185.388 132.282 185.388 122.987 z" style="stroke: none; stroke-width: 1; stroke-dasharray: none; stroke-linecap: butt; stroke-linejoin: miter; stroke-miterlimit: 10; fill: #ED9900; fill-rule: nonzero; opacity: 1;" transform=" matrix(1 0 0 1 0 0) " stroke-linecap="round" />
  <circle cx="130.504" cy="93.824" r="8.584" style="stroke: none; stroke-width: 1; stroke-dasharray: none; stroke-linecap: butt; stroke-linejoin: miter; stroke-miterlimit: 10; fill: #333E48; fill-rule: nonzero; opacity: 1;" transform="  matrix(1 0 0 1 0 0) "/>
  <circle cx="206.604" cy="93.824" r="8.584" style="stroke: none; stroke-width: 1; stroke-dasharray: none; stroke-linecap: butt; stroke-linejoin: miter; stroke-miterlimit: 10; fill: #333E48; fill-rule: nonzero; opacity: 1;" transform="  matrix(1 0 0 1 0 0) "/>
  <path d="M 138.463 312.159 h -27.494 c -6.891 0 -12.476 5.587 -12.476 12.478 s 5.586 12.477 12.476 12.477 h 27.494 c 6.891 0 12.478 -5.586 12.478 -12.477 C 150.94 317.746 145.353 312.159 138.463 312.159 z" style="stroke: none; stroke-width: 1; stroke-dasharray: none; stroke-linecap: butt; stroke-linejoin: miter; stroke-miterlimit: 10; fill: #ED9900; fill-rule: nonzero; opacity: 1;" transform=" matrix(1 0 0 1 0 0) " stroke-linecap="round" />
  <path d="M 198.651 312.159 h 27.495 c 6.891 0 12.477 5.587 12.477 12.478 s -5.586 12.477 -12.477 12.477 h -27.495 c -6.89 0 -12.477 -5.586 -12.477 -12.477 C 186.175 317.746 191.762 312.159 198.651 312.159 z" style="stroke: none; stroke-width: 1; stroke-dasharray: none; stroke-linecap: butt; stroke-linejoin: miter; stroke-miterlimit: 10; fill: #ED9900; fill-rule: nonzero; opacity: 1;" transform=" matrix(1 0 0 1 0 0) " stroke-linecap="round" />
</g>
</svg>